<?xml version="1.0" encoding="UTF-8" standalone="no"?>
<!DOCTYPE svg PUBLIC "-//W3C//DTD SVG 1.1//EN" "http://www.w3.org/Graphics/SVG/1.1/DTD/svg11.dtd">
<svg version="1.1" xmlns="http://www.w3.org/2000/svg" xmlns:xlink="http://www.w3.org/1999/xlink" preserveAspectRatio="xMidYMid meet" viewBox="0 0 640 640" width="640" height="640"><defs><path d="M614.79 33.77L614.87 33.77L614.94 33.77L615.02 33.77L615.1 33.77L615.17 33.77L615.25 33.78L615.33 33.78L615.4 33.78L615.48 33.78L615.56 33.78L615.63 33.79L615.71 33.79L615.78 33.79L615.86 33.8L615.94 33.8L616.01 33.8L616.09 33.81L616.17 33.81L616.61 33.84L617.05 33.88L617.49 33.93L617.93 33.98L618.37 34.04L618.81 34.11L619.25 34.18L619.69 34.27L620.12 34.36L620.56 34.46L620.99 34.57L621.42 34.68L621.85 34.8L622.28 34.93L622.7 35.07L623.13 35.22L623.55 35.37L623.97 35.53L624.38 35.7L624.8 35.88L625.21 36.06L625.62 36.25L626.03 36.45L626.43 36.66L626.83 36.87L627.23 37.09L627.62 37.32L628.01 37.56L628.4 37.81L628.78 38.06L629.16 38.32L629.54 38.59L629.91 38.86L630.28 39.15L630.64 39.44L631 39.74L631.36 40.04L631.71 40.36L632.05 40.68L632.4 41.01L632.43 41.04L632.47 41.08L632.5 41.11L632.54 41.14L632.57 41.18L632.61 41.21L632.64 41.25L632.68 41.28L632.71 41.32L632.74 41.35L632.78 41.39L632.81 41.42L632.85 41.46L632.88 41.49L632.91 41.53L632.95 41.56L632.98 41.6L633.02 41.63L633.05 41.67L633.08 41.7L633.12 41.74L633.15 41.78L633.18 41.81L633.22 41.85L633.25 41.88L633.28 41.92L633.32 41.95L633.35 41.99L633.38 42.03L633.41 42.06L633.45 42.1L633.48 42.13L633.51 42.17L633.54 42.21L633.57 42.24L633.61 42.28L633.64 42.32L633.67 42.35L633.7 42.39L633.73 42.43L634.01 42.75L634.28 43.07L634.55 43.4L634.81 43.74L635.06 44.07L635.31 44.41L635.55 44.76L635.78 45.1L636.01 45.45L636.23 45.8L636.44 46.15L636.65 46.51L636.86 46.87L637.05 47.23L637.24 47.6L637.42 47.96L637.6 48.33L637.77 48.7L637.94 49.07L638.09 49.45L638.25 49.83L638.39 50.2L638.53 50.58L638.66 50.97L638.79 51.35L638.91 51.74L639.02 52.12L639.13 52.51L639.23 52.9L639.33 53.29L639.42 53.68L639.5 54.08L639.57 54.47L639.64 54.87L639.71 55.26L639.77 55.66L639.82 56.06L639.86 56.45L639.9 56.85L639.93 57.25L639.94 57.35L639.95 57.45L639.95 57.55L639.96 57.65L639.96 57.75L639.97 57.85L639.97 57.95L639.98 58.05L639.98 58.16L639.98 58.26L639.99 58.36L639.99 58.46L639.99 58.56L639.99 58.66L640 58.76L640 58.86L640 58.96L640 59.06L640 59.17L640 59.27L640 59.37L639.99 59.47L639.99 59.57L639.99 59.67L639.99 59.77L639.99 59.88L639.98 59.98L639.98 60.08L639.97 60.18L639.97 60.28L639.97 60.38L639.96 60.48L639.95 60.59L639.95 60.69L639.94 60.79L639.93 60.89L639.93 60.99L639.92 61.09L639.91 61.2L639.9 61.3L639.9 61.37L639.89 61.44L639.88 61.51L639.88 61.59L639.87 61.66L639.86 61.73L639.85 61.8L639.85 61.88L639.84 61.95L639.83 62.02L639.82 62.09L639.81 62.17L639.8 62.24L639.8 62.31L639.79 62.38L639.78 62.45L639.77 62.53L639.76 62.6L639.75 62.67L639.74 62.74L639.73 62.81L639.72 62.89L639.71 62.96L639.69 63.03L639.68 63.1L639.67 63.18L639.66 63.25L639.65 63.32L639.64 63.39L639.62 63.46L639.61 63.54L639.6 63.61L639.58 63.68L639.57 63.75L639.56 63.82L639.54 63.89L639.53 63.97L639.52 64.04L639.5 64.11L639.49 64.18L540.1 585.64L539.97 586.27L539.83 586.89L539.67 587.5L539.5 588.11L539.31 588.71L539.11 589.31L538.9 589.9L538.67 590.48L538.42 591.06L538.16 591.63L537.89 592.19L537.61 592.75L537.31 593.29L537 593.83L536.67 594.36L536.34 594.89L535.99 595.4L535.63 595.9L535.25 596.4L534.87 596.89L534.47 597.36L534.06 597.83L533.64 598.29L533.21 598.73L532.77 599.17L532.31 599.59L531.85 600.01L531.38 600.41L530.89 600.8L530.4 601.18L529.89 601.55L529.38 601.91L528.85 602.25L528.32 602.58L527.77 602.9L527.22 603.21L526.66 603.5L526.09 603.78L525.51 604.04L524.93 604.3L524.69 604.39L524.46 604.49L524.22 604.58L523.98 604.67L523.75 604.75L523.51 604.84L523.27 604.92L523.03 605L522.79 605.07L522.55 605.15L522.31 605.22L522.07 605.29L521.83 605.35L521.59 605.42L521.35 605.48L521.1 605.54L520.86 605.6L520.62 605.65L520.37 605.7L520.13 605.75L519.89 605.8L519.64 605.84L519.4 605.88L519.15 605.92L518.91 605.96L518.66 606L518.42 606.03L518.17 606.06L517.93 606.09L517.68 606.11L517.43 606.14L517.19 606.16L516.94 606.17L516.7 606.19L516.45 606.2L516.2 606.21L515.96 606.22L515.71 606.23L515.46 606.23L515.22 606.23L514.84 606.23L514.47 606.22L514.09 606.21L513.72 606.19L513.35 606.16L512.97 606.13L512.6 606.1L512.23 606.06L511.86 606.01L511.49 605.96L511.12 605.9L510.75 605.83L510.38 605.77L510.01 605.69L509.64 605.61L509.28 605.53L508.91 605.44L508.55 605.34L508.19 605.24L507.83 605.13L507.47 605.02L507.11 604.9L506.76 604.78L506.4 604.65L506.05 604.52L505.7 604.38L505.35 604.23L505 604.08L504.65 603.93L504.31 603.77L503.97 603.6L503.63 603.43L503.29 603.25L502.96 603.07L502.62 602.88L502.29 602.69L501.96 602.49L501.64 602.29L501.31 602.08L500.99 601.86L340.07 492.71L253.76 554.81L253.25 555.17L252.73 555.51L252.21 555.85L251.68 556.16L251.14 556.47L250.59 556.76L250.04 557.03L249.49 557.29L248.93 557.54L248.36 557.77L247.79 557.99L247.22 558.2L246.64 558.39L246.06 558.57L245.47 558.73L244.88 558.88L244.29 559.01L243.69 559.14L243.1 559.24L242.5 559.33L241.89 559.41L241.29 559.47L240.68 559.52L240.08 559.56L239.47 559.57L238.86 559.58L238.25 559.57L237.64 559.55L237.03 559.51L236.42 559.45L235.81 559.38L235.21 559.3L234.6 559.2L234 559.09L233.39 558.96L232.79 558.82L232.19 558.66L231.59 558.49L231 558.3L230.41 558.1L229.82 557.88L229.25 557.65L228.68 557.4L228.11 557.14L227.56 556.87L227.01 556.59L226.47 556.29L225.94 555.98L225.42 555.66L224.91 555.32L224.4 554.98L223.91 554.62L223.42 554.25L222.94 553.87L222.48 553.48L222.02 553.08L221.57 552.67L221.14 552.25L220.71 551.81L220.29 551.37L219.89 550.92L219.49 550.46L219.11 549.98L218.74 549.5L218.38 549.01L218.03 548.51L217.69 548.01L217.37 547.49L217.05 546.97L216.75 546.43L216.47 545.89L216.19 545.35L215.93 544.79L215.68 544.23L215.44 543.66L215.22 543.08L215.01 542.5L214.82 541.91L214.64 541.31L214.47 540.71L171.13 376.48L16.28 317.27L15.56 316.98L14.85 316.67L14.15 316.34L13.46 315.99L12.79 315.62L12.13 315.23L11.48 314.82L10.85 314.4L10.24 313.95L9.64 313.49L9.05 313.02L8.48 312.52L7.93 312.01L7.39 311.49L6.87 310.95L6.36 310.39L5.87 309.83L5.4 309.24L4.95 308.65L4.51 308.04L4.1 307.42L3.7 306.78L3.32 306.14L2.96 305.48L2.61 304.81L2.29 304.14L1.99 303.45L1.71 302.75L1.44 302.04L1.2 301.33L0.98 300.6L0.78 299.87L0.61 299.13L0.45 298.38L0.32 297.63L0.21 296.87L0.12 296.1L0.06 295.33L0.02 294.56L0 293.78L0.01 293L0.04 292.22L0.09 291.45L0.17 290.68L0.27 289.92L0.39 289.16L0.54 288.42L0.7 287.67L0.89 286.94L1.1 286.21L1.33 285.49L1.58 284.78L1.86 284.08L2.15 283.39L2.46 282.71L2.8 282.03L3.15 281.37L3.52 280.72L3.91 280.08L4.32 279.45L4.75 278.84L5.19 278.24L5.65 277.65L6.14 277.07L6.63 276.51L7.15 275.96L7.68 275.43L8.23 274.92L8.79 274.42L9.37 273.93L9.96 273.46L10.57 273.01L11.2 272.58L11.84 272.16L12.49 271.76L13.16 271.38L13.84 271.02L14.54 270.68L15.25 270.36L15.97 270.06L604.76 35.78L604.96 35.7L605.16 35.61L605.36 35.53L605.56 35.45L605.77 35.38L605.97 35.3L606.17 35.23L606.38 35.16L606.58 35.09L606.79 35.02L606.99 34.95L607.2 34.89L607.41 34.83L607.61 34.77L607.82 34.71L608.03 34.65L608.24 34.59L608.45 34.54L608.65 34.49L608.86 34.44L609.07 34.39L609.28 34.34L609.49 34.3L609.7 34.26L609.92 34.22L610.13 34.18L610.34 34.14L610.55 34.1L610.76 34.07L610.97 34.04L611.19 34.01L611.4 33.98L611.61 33.95L611.83 33.93L612.04 33.9L612.25 33.88L612.47 33.86L612.68 33.84L612.89 33.83L613.11 33.82L613.18 33.81L613.26 33.81L613.34 33.8L613.41 33.8L613.49 33.8L613.57 33.79L613.64 33.79L613.72 33.79L613.79 33.78L613.87 33.78L613.95 33.78L614.02 33.78L614.1 33.77L614.18 33.77L614.25 33.77L614.33 33.77L614.41 33.77L614.48 33.77L614.56 33.77L614.64 33.77L614.71 33.77L614.79 33.77ZM353.53 440.61L353.54 440.62L353.56 440.63L353.58 440.65L353.6 440.66L353.63 440.68L353.65 440.69L353.66 440.7L353.68 440.71L353.7 440.72L353.73 440.75L353.75 440.76L353.77 440.77L353.78 440.78L353.8 440.79L353.82 440.8L353.84 440.81L353.85 440.83L353.87 440.84L353.89 440.85L353.9 440.86L353.92 440.87L353.94 440.88L353.95 440.89L353.97 440.91L353.99 440.92L354 440.93L354.02 440.94L354.04 440.95L354.05 440.96L354.1 441L354.14 441.02L354.19 441.06L354.2 441.07L497.55 538.3L574.88 132.54L295.58 401.3L353.53 440.61ZM295.42 462.42L241.27 425.69L241.08 425.56L240.9 425.43L240.71 425.3L240.53 425.16L240.35 425.03L240.16 424.89L239.98 424.75L239.81 424.62L239.63 424.47L239.45 424.33L239.28 424.19L239.11 424.04L238.94 423.9L238.77 423.75L238.6 423.6L238.43 423.45L238.26 423.3L238.1 423.14L237.94 422.99L237.78 422.83L237.62 422.68L237.46 422.52L237.3 422.36L237.15 422.2L236.99 422.03L236.84 421.87L236.69 421.7L236.54 421.54L236.39 421.37L236.25 421.2L236.1 421.03L235.96 420.86L235.82 420.69L235.68 420.51L235.54 420.34L235.41 420.16L235.27 419.99L235.14 419.81L235 419.63L234.87 419.45L254.07 492.17L295.42 462.42ZM201.36 333.78L201.93 334.01L202.49 334.25L203.05 334.5L203.59 334.76L204.13 335.03L204.66 335.32L205.18 335.62L205.7 335.93L206.2 336.26L206.7 336.59L207.19 336.94L207.67 337.29L208.14 337.66L208.6 338.04L209.05 338.43L209.49 338.82L209.92 339.23L210.35 339.65L210.76 340.08L211.16 340.52L211.56 340.97L211.94 341.42L212.31 341.89L212.67 342.36L213.02 342.84L213.35 343.33L213.68 343.83L214 344.34L214.3 344.86L214.59 345.38L214.87 345.91L215.14 346.45L215.39 346.99L215.63 347.54L215.86 348.1L216.08 348.66L216.28 349.23L216.47 349.81L216.65 350.39L216.81 350.98L230.29 402.09L230.34 401.64L230.4 401.2L230.47 400.77L230.54 400.33L230.62 399.89L230.71 399.46L230.81 399.03L230.91 398.6L231.02 398.17L231.14 397.75L231.26 397.32L231.39 396.9L231.53 396.48L231.68 396.07L231.84 395.65L232 395.24L232.17 394.84L232.34 394.43L232.52 394.03L232.71 393.63L232.91 393.24L233.11 392.85L233.32 392.46L233.54 392.07L233.77 391.69L234 391.31L234.23 390.94L234.48 390.57L234.73 390.2L234.99 389.84L235.25 389.48L235.52 389.13L235.8 388.78L236.09 388.44L236.38 388.1L236.67 387.76L236.98 387.43L237.29 387.1L237.6 386.78L237.92 386.47L504.06 130.38L95.04 293.13L201.36 333.78Z" id="c2h2S6XLIl"></path></defs><g><g><g><use xlink:href="#c2h2S6XLIl" opacity="1" fill="#ffffff" fill-opacity="1"></use><g><use xlink:href="#c2h2S6XLIl" opacity="1" fill-opacity="0" stroke="#000000" stroke-width="1" stroke-opacity="0"></use></g></g></g></g></svg>