<?xml version="1.0" encoding="UTF-8" standalone="no"?>
<!DOCTYPE svg PUBLIC "-//W3C//DTD SVG 1.1//EN" "http://www.w3.org/Graphics/SVG/1.1/DTD/svg11.dtd">
<svg version="1.1" xmlns="http://www.w3.org/2000/svg" xmlns:xlink="http://www.w3.org/1999/xlink" preserveAspectRatio="xMidYMid meet" viewBox="0 0 640 640" width="640" height="640"><defs><path d="M615.85 163.02C629.18 163.02 640 152.2 640 138.87C640 125.54 629.18 114.72 615.85 114.72C556.68 114.72 83.32 114.72 24.15 114.72C10.82 114.72 0 125.54 0 138.87C0 152.2 10.82 163.02 24.15 163.02C142.49 163.02 556.68 163.02 615.85 163.02Z" id="b3kTuijaU4"></path><path d="M615.85 344.15C629.18 344.15 640 333.33 640 320C640 306.67 629.18 295.85 615.85 295.85C556.68 295.85 83.32 295.85 24.15 295.85C10.82 295.85 0 306.67 0 320C0 333.33 10.82 344.15 24.15 344.15C142.49 344.15 556.68 344.15 615.85 344.15Z" id="a89OXWhHr"></path><path d="M615.85 525.28C629.18 525.28 640 514.46 640 501.13C640 487.8 629.18 476.98 615.85 476.98C556.68 476.98 83.32 476.98 24.15 476.98C10.82 476.98 0 487.8 0 501.13C0 514.46 10.82 525.28 24.15 525.28C142.49 525.28 556.68 525.28 615.85 525.28Z" id="aNBWySGV"></path></defs><g><g><g><use xlink:href="#b3kTuijaU4" opacity="1" fill="#ffffff" fill-opacity="1"></use><g><use xlink:href="#b3kTuijaU4" opacity="1" fill-opacity="0" stroke="#000000" stroke-width="1" stroke-opacity="0"></use></g></g><g><use xlink:href="#a89OXWhHr" opacity="1" fill="#ffffff" fill-opacity="1"></use><g><use xlink:href="#a89OXWhHr" opacity="1" fill-opacity="0" stroke="#000000" stroke-width="1" stroke-opacity="0"></use></g></g><g><use xlink:href="#aNBWySGV" opacity="1" fill="#ffffff" fill-opacity="1"></use><g><use xlink:href="#aNBWySGV" opacity="1" fill-opacity="0" stroke="#000000" stroke-width="1" stroke-opacity="0"></use></g></g></g></g></svg>