<?xml version="1.0" encoding="UTF-8" standalone="no"?>
<!DOCTYPE svg PUBLIC "-//W3C//DTD SVG 1.1//EN" "http://www.w3.org/Graphics/SVG/1.1/DTD/svg11.dtd">
<svg version="1.1" xmlns="http://www.w3.org/2000/svg" xmlns:xlink="http://www.w3.org/1999/xlink" preserveAspectRatio="xMidYMid meet" viewBox="0 0 640 640" width="640" height="640"><defs><path d="M575.18 117.84L578.02 118.13L580.83 118.53L583.61 119.04L586.34 119.66L589.04 120.38L591.69 121.21L594.3 122.14L596.85 123.16L599.36 124.28L601.82 125.5L604.22 126.8L606.56 128.2L608.85 129.68L611.07 131.24L613.23 132.89L615.32 134.62L617.34 136.43L619.3 138.31L621.18 140.26L622.98 142.28L624.71 144.38L626.36 146.54L627.93 148.76L629.41 151.04L630.8 153.39L632.11 155.79L633.32 158.24L634.44 160.75L635.47 163.31L636.4 165.92L637.22 168.57L637.94 171.26L638.56 174L639.07 176.77L639.48 179.58L639.77 182.43L639.94 185.3L640 188.21L640 451.79L639.94 454.7L639.77 457.58L639.48 460.42L639.07 463.23L638.56 466L637.94 468.74L637.22 471.43L636.39 474.09L635.47 476.69L634.44 479.25L633.32 481.76L632.11 484.21L630.8 486.61L629.41 488.96L627.93 491.24L626.36 493.46L624.71 495.62L622.98 497.72L621.18 499.74L619.3 501.69L617.34 503.58L615.32 505.38L613.23 507.11L611.07 508.76L608.84 510.32L606.56 511.8L604.22 513.2L601.82 514.5L599.36 515.72L596.85 516.84L594.29 517.87L591.69 518.79L589.04 519.62L586.34 520.34L583.61 520.96L580.83 521.47L578.02 521.87L575.18 522.16L572.3 522.34L569.4 522.4L158.58 522.4L155.68 522.34L152.8 522.16L149.95 521.87L147.14 521.47L144.37 520.96L141.63 520.34L138.94 519.62L136.29 518.79L133.68 517.87L131.13 516.84L128.62 515.72L126.16 514.5L123.76 513.2L121.42 511.8L119.13 510.32L116.91 508.76L114.75 507.11L112.66 505.38L110.63 503.58L108.68 501.69L106.8 499.74L104.99 497.72L103.27 495.62L101.62 493.46L100.05 491.24L98.57 488.96L97.18 486.61L95.87 484.21L94.66 481.76L93.53 479.25L92.51 476.69L91.58 474.09L90.76 471.43L90.03 468.74L89.41 466L88.9 463.23L88.5 460.42L88.21 457.58L88.04 454.7L87.98 451.79L87.98 425.38L54.17 425.38L53.34 425.37L52.51 425.32L51.7 425.23L50.89 425.12L50.1 424.97L49.31 424.8L48.54 424.59L47.78 424.35L47.03 424.09L46.3 423.8L45.58 423.48L44.88 423.13L44.19 422.75L43.52 422.36L42.87 421.93L42.23 421.48L41.61 421.01L41.01 420.52L40.43 420L39.88 419.46L39.34 418.9L38.82 418.32L38.33 417.73L37.85 417.11L37.41 416.47L36.98 415.82L36.58 415.15L36.21 414.46L35.86 413.76L35.54 413.04L35.25 412.3L34.98 411.56L34.75 410.8L34.54 410.03L34.36 409.24L34.22 408.45L34.1 407.64L34.02 406.83L33.97 406L33.95 405.17L33.97 404.33L34.02 403.51L34.1 402.69L34.22 401.89L34.36 401.09L34.54 400.31L34.75 399.54L34.98 398.78L35.25 398.03L35.54 397.3L35.86 396.58L36.21 395.88L36.58 395.19L36.98 394.52L37.41 393.87L37.85 393.23L38.33 392.61L38.82 392.01L39.34 391.43L39.88 390.87L40.43 390.34L41.01 389.82L41.61 389.32L42.23 388.85L42.87 388.4L43.52 387.98L44.19 387.58L44.88 387.21L45.58 386.86L46.3 386.54L47.03 386.25L47.78 385.98L48.54 385.75L49.31 385.54L50.1 385.36L50.89 385.22L51.7 385.1L52.51 385.02L53.34 384.97L54.17 384.95L87.98 384.95L87.98 330.67L20.22 330.67L19.38 330.65L18.56 330.6L17.74 330.52L16.94 330.41L16.14 330.26L15.36 330.08L14.59 329.88L13.83 329.64L13.08 329.38L12.35 329.08L11.63 328.76L10.93 328.41L10.24 328.04L9.57 327.64L8.91 327.22L8.28 326.77L7.66 326.3L7.06 325.8L6.48 325.29L5.92 324.75L5.38 324.19L4.87 323.61L4.37 323.01L3.9 322.39L3.45 321.76L3.03 321.1L2.63 320.43L2.26 319.74L1.91 319.04L1.59 318.32L1.3 317.59L1.03 316.84L0.79 316.08L0.59 315.31L0.41 314.53L0.26 313.73L0.15 312.93L0.07 312.11L0.02 311.29L0 310.45L0.02 309.62L0.07 308.8L0.15 307.98L0.26 307.18L0.41 306.38L0.59 305.6L0.79 304.82L1.03 304.06L1.3 303.32L1.59 302.59L1.91 301.87L2.26 301.16L2.63 300.48L3.03 299.8L3.45 299.15L3.9 298.51L4.37 297.9L4.87 297.3L5.38 296.72L5.92 296.16L6.48 295.62L7.06 295.1L7.66 294.61L8.28 294.14L8.91 293.69L9.57 293.27L10.24 292.87L10.93 292.49L11.63 292.15L12.35 291.83L13.08 291.53L13.83 291.27L14.59 291.03L15.36 290.82L16.14 290.65L16.94 290.5L17.74 290.39L18.56 290.3L19.38 290.25L20.22 290.24L87.98 290.24L87.98 188.21L88.04 185.3L88.21 182.42L88.5 179.58L88.9 176.77L89.42 174L90.03 171.26L90.76 168.57L91.58 165.91L92.51 163.31L93.54 160.75L94.66 158.24L95.87 155.79L97.18 153.39L98.57 151.04L100.05 148.76L101.62 146.54L103.27 144.38L105 142.28L106.8 140.26L108.68 138.31L110.64 136.42L112.66 134.62L114.75 132.89L116.91 131.24L119.13 129.68L121.42 128.2L123.76 126.8L126.16 125.5L128.62 124.28L131.13 123.16L133.68 122.13L136.29 121.21L138.94 120.38L141.64 119.66L144.37 119.04L147.15 118.53L149.96 118.13L152.8 117.84L155.68 117.66L158.58 117.6L569.4 117.6L572.3 117.66L575.18 117.84ZM414.89 342.16L413.72 342.97L412.54 343.76L411.36 344.53L410.16 345.28L408.95 346.01L407.73 346.72L406.51 347.4L405.27 348.07L404.03 348.71L402.77 349.33L401.51 349.93L400.24 350.51L398.96 351.07L397.68 351.61L396.39 352.12L395.09 352.62L393.78 353.09L392.47 353.55L391.16 353.98L389.83 354.39L388.5 354.78L387.17 355.15L385.83 355.5L384.49 355.82L383.14 356.13L381.79 356.42L380.43 356.68L379.08 356.92L377.71 357.14L376.35 357.34L374.98 357.52L373.61 357.68L372.24 357.82L370.87 357.93L369.5 358.03L368.12 358.1L366.74 358.15L365.37 358.19L363.99 358.2L362.61 358.19L361.23 358.15L359.86 358.1L358.48 358.03L357.11 357.93L355.74 357.82L354.36 357.68L352.99 357.52L351.63 357.34L350.26 357.14L348.9 356.92L347.54 356.68L346.19 356.42L344.84 356.13L343.49 355.83L342.15 355.5L340.81 355.15L339.47 354.78L338.15 354.39L336.82 353.98L335.51 353.55L334.19 353.1L332.89 352.62L331.59 352.13L330.3 351.61L329.01 351.07L327.74 350.51L326.47 349.93L325.21 349.33L323.95 348.71L322.71 348.07L321.47 347.4L320.25 346.72L319.03 346.01L317.82 345.28L316.62 344.53L315.43 343.77L314.26 342.97L313.09 342.16L311.94 341.33L128.41 206.66L128.41 384.95L204.54 384.95L205.37 384.97L206.2 385.02L207.01 385.1L207.82 385.22L208.61 385.36L209.4 385.54L210.17 385.75L210.93 385.98L211.68 386.25L212.41 386.54L213.13 386.86L213.83 387.21L214.52 387.58L215.19 387.98L215.84 388.4L216.48 388.85L217.1 389.32L217.7 389.82L218.28 390.34L218.83 390.87L219.37 391.43L219.89 392.01L220.38 392.61L220.85 393.23L221.3 393.87L221.73 394.52L222.13 395.19L222.5 395.88L222.85 396.58L223.17 397.3L223.46 398.03L223.72 398.78L223.96 399.54L224.17 400.31L224.34 401.09L224.49 401.89L224.61 402.69L224.69 403.51L224.74 404.33L224.76 405.17L224.74 406L224.69 406.83L224.61 407.64L224.49 408.45L224.34 409.24L224.17 410.03L223.96 410.8L223.72 411.56L223.46 412.3L223.17 413.04L222.85 413.76L222.5 414.46L222.13 415.15L221.73 415.82L221.3 416.47L220.85 417.11L220.38 417.73L219.89 418.32L219.37 418.9L218.83 419.46L218.28 420L217.7 420.52L217.1 421.01L216.48 421.48L215.84 421.93L215.19 422.36L214.52 422.75L213.83 423.13L213.13 423.48L212.41 423.8L211.68 424.09L210.93 424.35L210.17 424.59L209.4 424.8L208.61 424.97L207.82 425.12L207.01 425.23L206.2 425.32L205.37 425.37L204.54 425.38L128.41 425.38L128.41 451.79L128.44 453.04L128.51 454.26L128.64 455.48L128.81 456.68L129.03 457.87L129.29 459.04L129.6 460.19L129.95 461.32L130.35 462.43L130.79 463.53L131.27 464.6L131.78 465.65L132.34 466.67L132.94 467.67L133.57 468.65L134.24 469.6L134.94 470.52L135.68 471.42L136.45 472.28L137.26 473.12L138.09 473.92L138.96 474.69L139.85 475.43L140.78 476.14L141.73 476.81L142.7 477.44L143.7 478.03L144.73 478.59L145.78 479.11L146.85 479.59L147.94 480.03L149.06 480.42L150.19 480.78L151.34 481.09L152.51 481.35L153.7 481.57L154.9 481.74L156.11 481.86L157.34 481.94L158.58 481.96L569.4 481.96L570.23 481.95L571.05 481.89L571.88 481.79L572.69 481.66L573.51 481.49L574.32 481.29L575.13 481.04L575.93 480.76L576.73 480.44L577.52 480.08L578.31 479.68L579.1 479.25L579.88 478.78L580.66 478.27L581.44 477.72L582.21 477.14L582.98 476.51L583.74 475.86L584.5 475.16L585.26 474.42L586.01 473.65L586.76 472.84L587.5 471.99L588.24 471.1L588.98 470.18L589.71 469.22L590.44 468.22L591.17 467.18L591.89 466.11L592.61 464.99L593.32 463.84L594.03 462.66L594.74 461.43L595.44 460.17L596.14 458.86L596.83 457.53L597.52 456.15L598.21 454.74L598.89 453.28L599.57 451.79L599.57 206.66L416.04 341.33L414.89 342.16ZM158.05 158.04L157.51 158.06L156.98 158.08L156.45 158.11L155.92 158.15L155.4 158.2L154.88 158.26L154.36 158.33L153.84 158.41L153.33 158.5L152.82 158.59L152.31 158.69L151.8 158.81L151.3 158.93L150.8 159.05L150.31 159.19L149.82 159.34L149.33 159.49L148.85 159.65L148.37 159.82L147.89 160L147.42 160.18L146.95 160.37L146.48 160.57L146.02 160.78L145.56 161L145.11 161.22L144.66 161.45L144.22 161.69L143.78 161.93L143.34 162.18L142.91 162.44L142.49 162.71L142.06 162.98L141.65 163.26L141.24 163.54L140.83 163.83L140.43 164.13L140.03 164.44L139.64 164.75L335.86 308.73L337.11 309.62L338.39 310.46L339.69 311.26L341.01 312.01L342.35 312.72L343.71 313.38L345.09 314L346.48 314.57L347.89 315.09L349.31 315.57L350.74 316L352.18 316.39L353.64 316.73L355.1 317.03L356.57 317.28L358.05 317.48L359.53 317.64L361.01 317.76L362.5 317.83L363.99 317.85L365.48 317.83L366.97 317.76L368.45 317.64L369.93 317.48L371.41 317.28L372.88 317.03L374.34 316.73L375.8 316.39L377.24 316L378.67 315.57L380.09 315.09L381.5 314.57L382.89 314L384.27 313.38L385.63 312.72L386.97 312.01L388.29 311.26L389.59 310.46L390.87 309.62L392.12 308.73L588.34 164.75L587.95 164.44L587.55 164.13L587.15 163.83L586.74 163.54L586.33 163.26L585.92 162.98L585.49 162.71L585.07 162.44L584.64 162.18L584.2 161.93L583.76 161.69L583.32 161.45L582.87 161.22L582.42 161L581.96 160.78L581.5 160.57L581.03 160.37L580.56 160.18L580.09 160L579.61 159.82L579.13 159.65L578.65 159.49L578.16 159.34L577.67 159.19L577.18 159.05L576.68 158.93L576.18 158.81L575.67 158.69L575.16 158.59L574.65 158.5L574.14 158.41L573.62 158.33L573.1 158.26L572.58 158.2L572.06 158.15L571.53 158.11L571 158.08L570.47 158.06L569.93 158.04L569.4 158.04L158.58 158.04L158.05 158.04Z" id="a1OIDhhcqo"></path></defs><g><g><g><use xlink:href="#a1OIDhhcqo" opacity="1" fill="#ffffff" fill-opacity="1"></use><g><use xlink:href="#a1OIDhhcqo" opacity="1" fill-opacity="0" stroke="#000000" stroke-width="1" stroke-opacity="0"></use></g></g></g></g></svg>