<svg id="Слой_1" data-name="Слой 1" xmlns="http://www.w3.org/2000/svg" viewBox="0 0 636.32 639.38">
  <title>whatsapp</title>
  <path d="M567.17,113.9A314.75,314.75,0,0,0,343.05,21C168.41,21,26.29,163.1,26.22,337.78a316.18,316.18,0,0,0,42.29,158.4L23.56,660.35l168-44.05a316.59,316.59,0,0,0,151.4,38.56h.13c174.62,0,316.76-142.13,316.83-316.82A314.9,314.9,0,0,0,567.17,113.9ZM343.05,601.35h-.11a263,263,0,0,1-134-36.7l-9.61-5.71L99.63,585.08l26.6-97.17L120,478A262.74,262.74,0,0,1,79.71,337.8C79.77,192.61,197.9,74.49,343.15,74.49A263.37,263.37,0,0,1,606.39,338C606.32,483.22,488.2,601.35,343.05,601.35ZM487.49,404.13c-7.91-4-46.83-23.11-54.09-25.76s-12.54-3.95-17.81,4-20.45,25.75-25.07,31-9.23,5.95-17.15,2S340,403,309.71,376.06c-23.54-21-39.42-46.91-44-54.83s0-11.81,3.47-16.16c8.57-10.64,17.15-21.8,19.79-27.08s1.32-9.91-.66-13.87-17.81-42.93-24.41-58.78c-6.43-15.43-13-13.35-17.81-13.59-4.61-.23-9.89-.28-15.17-.28s-13.86,2-21.11,9.91-27.71,27.08-27.71,66,28.37,76.61,32.33,81.89,55.82,85.25,135.23,119.54a454.73,454.73,0,0,0,45.13,16.68c19,6,36.22,5.17,49.86,3.13,15.22-2.27,46.84-19.15,53.44-37.64s6.59-34.34,4.61-37.65S495.41,408.09,487.49,404.13Z" transform="translate(-23.56 -20.98)" style="fill: #fff"/>
</svg>
